<svg version="1.1" viewBox="0.0 0.0 1112.3044619422571 690.2362204724409" fill="none" stroke="none" stroke-linecap="square" stroke-miterlimit="10" xmlns:xlink="http://www.w3.org/1999/xlink" xmlns="http://www.w3.org/2000/svg"><clipPath id="p.0"><path d="m0 0l1112.3044 0l0 690.2362l-1112.3044 0l0 -690.2362z" clip-rule="nonzero"/></clipPath><g clip-path="url(#p.0)"><path fill="#ffffff" d="m0 0l1112.3044 0l0 690.2362l-1112.3044 0z" fill-rule="evenodd"/><path fill="#000000" fill-opacity="0.0" d="m0.002624672 25.060368l1111.055 0l0 65.6378l-1111.055 0z" fill-rule="evenodd"/><path fill="#000000" d="m355.2021 64.780365l0 -22.906246l7.421875 0q4.21875 0 5.5 0.34375q1.96875 0.515625 3.296875 2.25q1.328125 1.71875 1.328125 4.453125q0 2.109375 -0.765625 3.546875q-0.765625 1.4375 -1.953125 2.265625q-1.171875 0.8125 -2.390625 1.078125q-1.65625 0.328125 -4.796875 0.328125l-3.015625 0l0 8.640621l-4.625 0zm4.625 -19.031246l0 6.5l2.53125 0q2.734375 0 3.65625 -0.359375q0.921875 -0.359375 1.4375 -1.125q0.53125 -0.765625 0.53125 -1.78125q0 -1.25 -0.734375 -2.0625q-0.734375 -0.8125 -1.859375 -1.015625q-0.828125 -0.15625 -3.328125 -0.15625l-2.234375 0zm16.734375 19.031246l0 -22.906246l9.734375 0q3.671875 0 5.328125 0.625q1.671875 0.609375 2.671875 2.1875q1.0 1.578125 1.0 3.609375q0 2.578125 -1.515625 4.265625q-1.515625 1.671875 -4.53125 2.109375q1.5 0.875 2.46875 1.921875q0.984375 1.046875 2.640625 3.71875l2.796875 4.468746l-5.53125 0l-3.34375 -4.984371q-1.78125 -2.671875 -2.4375 -3.359375q-0.65625 -0.703125 -1.390625 -0.953125q-0.734375 -0.265625 -2.328125 -0.265625l-0.9375 0l0 9.562496l-4.625 0zm4.625 -13.218746l3.421875 0q3.328125 0 4.15625 -0.28125q0.828125 -0.28125 1.296875 -0.96875q0.46875 -0.6875 0.46875 -1.71875q0 -1.15625 -0.625 -1.859375q-0.609375 -0.71875 -1.734375 -0.90625q-0.5625 -0.078125 -3.375 -0.078125l-3.609375 0l0 5.8125zm18.46875 13.218746l0 -22.906246l16.984375 0l0 3.875l-12.359375 0l0 5.078125l11.5 0l0 3.859375l-11.5 0l0 6.234375l12.796875 0l0 3.8593712l-17.421875 0zm21.328125 -22.906246l8.453125 0q2.859375 0 4.359375 0.4375q2.015625 0.59375 3.453125 2.109375q1.4375 1.515625 2.1875 3.71875q0.75 2.1875 0.75 5.40625q0 2.828125 -0.703125 4.875q-0.859375 2.5 -2.453125 4.046875q-1.203125 1.171875 -3.25 1.8281212q-1.53125 0.484375 -4.09375 0.484375l-8.703125 0l0 -22.906246zm4.625 3.875l0 15.171875l3.453125 0q1.9375 0 2.796875 -0.21875q1.125 -0.28125 1.859375 -0.953125q0.75 -0.671875 1.21875 -2.203125q0.46875 -1.546875 0.46875 -4.203125q0 -2.65625 -0.46875 -4.078125q-0.46875 -1.421875 -1.3125 -2.21875q-0.84375 -0.796875 -2.140625 -1.078125q-0.96875 -0.21875 -3.796875 -0.21875l-2.078125 0zm18.359375 19.031246l0 -22.906246l4.625 0l0 22.906246l-4.625 0zm23.6875 -8.421871l4.484375 1.421875q-1.03125 3.75 -3.4375 5.578125q-2.390625 1.8124962 -6.078125 1.8124962q-4.5625 0 -7.5 -3.1093712q-2.9375 -3.125 -2.9375 -8.53125q0 -5.71875 2.953125 -8.875q2.953125 -3.171875 7.765625 -3.171875q4.203125 0 6.828125 2.484375q1.5625 1.46875 2.34375 4.21875l-4.578125 1.09375q-0.40625 -1.78125 -1.703125 -2.8125q-1.28125 -1.03125 -3.125 -1.03125q-2.546875 0 -4.140625 1.828125q-1.578125 1.828125 -1.578125 5.921875q0 4.34375 1.5625 6.1875q1.5625 1.84375 4.0625 1.84375q1.84375 0 3.171875 -1.171875q1.328125 -1.171875 1.90625 -3.6875zm13.609375 8.421871l0 -19.031246l-6.796875 0l0 -3.875l18.203125 0l0 3.875l-6.78125 0l0 19.031246l-4.625 0zm14.25 0l0 -22.906246l4.625 0l0 22.906246l-4.625 0zm9.078125 0l0 -22.906246l4.5 0l9.375 15.296875l0 -15.296875l4.296875 0l0 22.906246l-4.640625 0l-9.234375 -14.937496l0 14.937496l-4.296875 0zm33.71875 -8.421871l0 -3.859375l9.96875 0l0 9.125q-1.453125 1.40625 -4.21875 2.4843712q-2.75 1.0625 -5.578125 1.0625q-3.59375 0 -6.265625 -1.4999962q-2.671875 -1.515625 -4.015625 -4.3125q-1.34375 -2.8125 -1.34375 -6.109375q0 -3.578125 1.5 -6.359375q1.5 -2.78125 4.390625 -4.265625q2.203125 -1.140625 5.484375 -1.140625q4.265625 0 6.65625 1.796875q2.40625 1.78125 3.09375 4.9375l-4.59375 0.859375q-0.484375 -1.6875 -1.828125 -2.65625q-1.328125 -0.984375 -3.328125 -0.984375q-3.03125 0 -4.828125 1.921875q-1.78125 1.921875 -1.78125 5.703125q0 4.078125 1.8125 6.125q1.8125 2.03125 4.75 2.03125q1.453125 0 2.90625 -0.5625q1.46875 -0.578125 2.515625 -1.390625l0 -2.90625l-5.296875 0zm23.0625 8.421871l0 -22.906246l6.921875 0l4.15625 15.625l4.109375 -15.625l6.9375 0l0 22.906246l-4.296875 0l0 -18.031246l-4.546875 18.031246l-4.453125 0l-4.53125 -18.031246l0 18.031246l-4.296875 0zm25.78125 -11.312496q0 -3.5 1.046875 -5.875q0.78125 -1.75 2.125 -3.140625q1.359375 -1.390625 2.96875 -2.0625q2.140625 -0.90625 4.9375 -0.90625q5.0625 0 8.09375 3.140625q3.046875 3.140625 3.046875 8.734375q0 5.546875 -3.015625 8.6875q-3.015625 3.1249962 -8.0625 3.1249962q-5.109375 0 -8.125 -3.1093712q-3.015625 -3.125 -3.015625 -8.59375zm4.765625 -0.15625q0 3.890625 1.796875 5.90625q1.796875 2.0 4.5625 2.0q2.765625 0 4.53125 -1.984375q1.78125 -2.0 1.78125 -5.984375q0 -3.9375 -1.734375 -5.875q-1.71875 -1.9375 -4.578125 -1.9375q-2.859375 0 -4.609375 1.96875q-1.75 1.953125 -1.75 5.90625zm21.046875 -11.4375l8.453125 0q2.859375 0 4.359375 0.4375q2.015625 0.59375 3.453125 2.109375q1.4375 1.515625 2.1875 3.71875q0.75 2.1875 0.75 5.40625q0 2.828125 -0.703125 4.875q-0.859375 2.5 -2.453125 4.046875q-1.203125 1.171875 -3.25 1.8281212q-1.53125 0.484375 -4.09375 0.484375l-8.703125 0l0 -22.906246zm4.625 3.875l0 15.171875l3.453125 0q1.9375 0 2.796875 -0.21875q1.125 -0.28125 1.859375 -0.953125q0.75 -0.671875 1.21875 -2.203125q0.46875 -1.546875 0.46875 -4.203125q0 -2.65625 -0.46875 -4.078125q-0.46875 -1.421875 -1.3125 -2.21875q-0.84375 -0.796875 -2.140625 -1.078125q-0.96875 -0.21875 -3.796875 -0.21875l-2.078125 0zm18.5 19.031246l0 -22.906246l16.984375 0l0 3.875l-12.359375 0l0 5.078125l11.5 0l0 3.859375l-11.5 0l0 6.234375l12.796875 0l0 3.8593712l-17.421875 0zm30.265625 0l0 -22.906246l15.703125 0l0 3.875l-11.078125 0l0 5.421875l9.5625 0l0 3.875l-9.5625 0l0 9.734371l-4.625 0zm19.640625 0l0 -22.718746l4.625 0l0 18.859375l11.5 0l0 3.8593712l-16.125 0zm18.484375 -11.312496q0 -3.5 1.046875 -5.875q0.78125 -1.75 2.125 -3.140625q1.359375 -1.390625 2.96875 -2.0625q2.140625 -0.90625 4.9375 -0.90625q5.0625 0 8.09375 3.140625q3.046875 3.140625 3.046875 8.734375q0 5.546875 -3.015625 8.6875q-3.015625 3.1249962 -8.0625 3.1249962q-5.109375 0 -8.125 -3.1093712q-3.015625 -3.125 -3.015625 -8.59375zm4.765625 -0.15625q0 3.890625 1.796875 5.90625q1.796875 2.0 4.5625 2.0q2.765625 0 4.53125 -1.984375q1.78125 -2.0 1.78125 -5.984375q0 -3.9375 -1.734375 -5.875q-1.71875 -1.9375 -4.578125 -1.9375q-2.859375 0 -4.609375 1.96875q-1.75 1.953125 -1.75 5.90625zm24.3125 11.468746l-5.46875 -22.906246l4.734375 0l3.453125 15.734375l4.1875 -15.734375l5.5 0l4.015625 16.0l3.515625 -16.0l4.65625 0l-5.5625 22.906246l-4.90625 0l-4.5625 -17.124996l-4.546875 17.124996l-5.015625 0z" fill-rule="nonzero"/></g></svg>